<svg xmlns="http://www.w3.org/2000/svg" xmlns:xlink="http://www.w3.org/1999/xlink" width="135" height="40" viewBox="0 0 135 40">
  <defs>
    <linearGradient id="linear-gradient" x1="0.915" y1="6.617" x2="-0.384" y2="5.947" gradientUnits="objectBoundingBox">
      <stop offset="0" stop-color="#00a0ff"/>
      <stop offset="0.007" stop-color="#00a1ff"/>
      <stop offset="0.26" stop-color="#00beff"/>
      <stop offset="0.512" stop-color="#00d2ff"/>
      <stop offset="0.76" stop-color="#00dfff"/>
      <stop offset="1" stop-color="#00e3ff"/>
    </linearGradient>
    <linearGradient id="linear-gradient-2" x1="1.076" y1="17.089" x2="-1.305" y2="17.089" gradientUnits="objectBoundingBox">
      <stop offset="0" stop-color="#ffe000"/>
      <stop offset="0.409" stop-color="#ffbd00"/>
      <stop offset="0.775" stop-color="orange"/>
      <stop offset="1" stop-color="#ff9c00"/>
    </linearGradient>
    <linearGradient id="linear-gradient-3" x1="0.863" y1="10.864" x2="-0.502" y2="9.095" gradientUnits="objectBoundingBox">
      <stop offset="0" stop-color="#ff3a44"/>
      <stop offset="1" stop-color="#c31162"/>
    </linearGradient>
    <linearGradient id="linear-gradient-4" x1="-0.188" y1="13.585" x2="0.421" y2="12.794" gradientUnits="objectBoundingBox">
      <stop offset="0" stop-color="#32a071"/>
      <stop offset="0.068" stop-color="#2da771"/>
      <stop offset="0.476" stop-color="#15cf74"/>
      <stop offset="0.801" stop-color="#06e775"/>
      <stop offset="1" stop-color="#00f076"/>
    </linearGradient>
  </defs>
  <g id="GooglePlay" transform="translate(-10 -10)">
    <g id="Group_1" data-name="Group 1">
      <path id="Path_1" data-name="Path 1" d="M140,50H15a5.015,5.015,0,0,1-5-5V15a5.015,5.015,0,0,1,5-5H140a5.015,5.015,0,0,1,5,5V45A5.015,5.015,0,0,1,140,50Z"/>
    </g>
    <g id="Group_3" data-name="Group 3">
      <g id="Group_2" data-name="Group 2">
        <path id="Path_2" data-name="Path 2" d="M140,10.8a4.2,4.2,0,0,1,4.2,4.2V45a4.2,4.2,0,0,1-4.2,4.2H15A4.2,4.2,0,0,1,10.8,45V15A4.2,4.2,0,0,1,15,10.8H140m0-.8H15a5.015,5.015,0,0,0-5,5V45a5.015,5.015,0,0,0,5,5H140a5.015,5.015,0,0,0,5-5V15a5.015,5.015,0,0,0-5-5Z" fill="#a6a6a6"/>
      </g>
    </g>
    <g id="Group_4" data-name="Group 4">
      <path id="Path_3" data-name="Path 3" d="M57.42,20.24a2.677,2.677,0,0,1-.75,2,2.908,2.908,0,0,1-2.2.89A3.091,3.091,0,0,1,51.35,20a2.994,2.994,0,0,1,.91-2.23,3.159,3.159,0,0,1,3.44-.65,2.544,2.544,0,0,1,.94.67l-.53.53a2.035,2.035,0,0,0-1.64-.71,2.266,2.266,0,0,0-1.64.67,2.4,2.4,0,0,0,1.64,4.13,2.276,2.276,0,0,0,1.68-.67,1.871,1.871,0,0,0,.5-1.22H54.47V19.8h2.91A3.424,3.424,0,0,1,57.42,20.24Z" fill="#fff" stroke="#fff" stroke-miterlimit="10" stroke-width="0.2"/>
      <path id="Path_4" data-name="Path 4" d="M62.03,17.74H59.3v1.9h2.46v.72H59.3v1.9h2.73V23h-3.5V17h3.5Z" fill="#fff" stroke="#fff" stroke-miterlimit="10" stroke-width="0.2"/>
      <path id="Path_5" data-name="Path 5" d="M65.28,23h-.77V17.74H62.83V17h4.12v.74H65.27V23Z" fill="#fff" stroke="#fff" stroke-miterlimit="10" stroke-width="0.2"/>
      <path id="Path_6" data-name="Path 6" d="M69.94,23V17h.77v6Z" fill="#fff" stroke="#fff" stroke-miterlimit="10" stroke-width="0.2"/>
      <path id="Path_7" data-name="Path 7" d="M74.13,23h-.77V17.74H71.68V17H75.8v.74H74.12V23Z" fill="#fff" stroke="#fff" stroke-miterlimit="10" stroke-width="0.2"/>
      <path id="Path_8" data-name="Path 8" d="M83.61,22.22a3.114,3.114,0,0,1-4.4,0,3.24,3.24,0,0,1,0-4.44,2.927,2.927,0,0,1,2.2-.91,2.958,2.958,0,0,1,2.2.91,3.214,3.214,0,0,1,0,4.44Zm-3.83-.5a2.318,2.318,0,0,0,3.26,0A2.36,2.36,0,0,0,83.71,20a2.321,2.321,0,0,0-.67-1.72,2.318,2.318,0,0,0-3.26,0,2.543,2.543,0,0,0,0,3.44Z" fill="#fff" stroke="#fff" stroke-miterlimit="10" stroke-width="0.2"/>
      <path id="Path_9" data-name="Path 9" d="M85.58,23V17h.94l2.92,4.67h.03l-.03-1.16V17h.77v6h-.8l-3.05-4.89h-.03l.03,1.16V23Z" fill="#fff" stroke="#fff" stroke-miterlimit="10" stroke-width="0.2"/>
    </g>
    <path id="Path_10" data-name="Path 10" d="M78.14,31.75A4.25,4.25,0,1,0,82.41,36,4.195,4.195,0,0,0,78.14,31.75Zm0,6.83A2.587,2.587,0,1,1,80.54,36,2.458,2.458,0,0,1,78.14,38.58Zm-9.32-6.83A4.25,4.25,0,1,0,73.09,36,4.195,4.195,0,0,0,68.82,31.75Zm0,6.83A2.587,2.587,0,1,1,71.22,36,2.458,2.458,0,0,1,68.82,38.58ZM57.74,33.06v1.8h4.32a3.8,3.8,0,0,1-.98,2.27,4.411,4.411,0,0,1-3.33,1.32,4.8,4.8,0,0,1,0-9.6A4.571,4.571,0,0,1,61,30.14l1.27-1.27a6.3,6.3,0,0,0-4.53-1.82,6.611,6.611,0,1,0,0,13.22,6.03,6.03,0,0,0,4.61-1.85,5.968,5.968,0,0,0,1.56-4.22,5.456,5.456,0,0,0-.1-1.13H57.74Zm45.31,1.4a3.946,3.946,0,0,0-3.64-2.71A4.038,4.038,0,0,0,95.4,36a4.159,4.159,0,0,0,4.22,4.25,4.214,4.214,0,0,0,3.54-1.88l-1.45-.97a2.419,2.419,0,0,1-2.09,1.18,2.163,2.163,0,0,1-2.06-1.29l5.69-2.35Zm-5.8,1.42a2.331,2.331,0,0,1,2.22-2.48,1.652,1.652,0,0,1,1.58.9ZM92.63,40H94.5V27.5H92.63Zm-3.06-7.3H89.5a2.94,2.94,0,0,0-2.24-.95,4.259,4.259,0,0,0,0,8.51,2.9,2.9,0,0,0,2.24-.97h.06v.61c0,1.63-.87,2.5-2.27,2.5a2.354,2.354,0,0,1-2.14-1.51l-1.63.68a4.053,4.053,0,0,0,3.77,2.51c2.19,0,4.04-1.29,4.04-4.43V32.01H89.56v.69Zm-2.15,5.88a2.584,2.584,0,0,1,0-5.15,2.4,2.4,0,0,1,2.27,2.59A2.365,2.365,0,0,1,87.42,38.58ZM111.81,27.5h-4.47V40h1.87V35.26h2.61a3.886,3.886,0,1,0-.01-7.76Zm.04,6.02H109.2V29.23h2.65a2.145,2.145,0,1,1,0,4.29Zm11.54-1.79a3.518,3.518,0,0,0-3.33,1.91l1.66.69a1.764,1.764,0,0,1,1.7-.92,1.8,1.8,0,0,1,1.96,1.61v.13a4.176,4.176,0,0,0-1.95-.48c-1.79,0-3.6.98-3.6,2.81a2.886,2.886,0,0,0,3.1,2.75,2.629,2.629,0,0,0,2.38-1.22h.06v.97h1.8V35.19C127.18,32.97,125.52,31.73,123.39,31.73Zm-.23,6.85c-.61,0-1.46-.31-1.46-1.06,0-.96,1.06-1.33,1.98-1.33a3.293,3.293,0,0,1,1.7.42A2.257,2.257,0,0,1,123.16,38.58ZM133.74,32l-2.14,5.42h-.06L129.32,32h-2.01l3.33,7.58-1.9,4.21h1.95L135.82,32Zm-16.8,8h1.87V27.5h-1.87Z" fill="#fff"/>
    <g id="Group_6" data-name="Group 6">
      <path id="Path_11" data-name="Path 11" d="M20.44,17.54a2.012,2.012,0,0,0-.46,1.4V41.06a1.978,1.978,0,0,0,.46,1.4l.07.07L32.9,30.15v-.3L20.51,17.47Z" fill="url(#linear-gradient)"/>
      <path id="Path_12" data-name="Path 12" d="M37.03,34.28,32.9,30.15v-.3l4.13-4.13.09.05,4.89,2.78c1.4.79,1.4,2.09,0,2.89l-4.89,2.78Z" fill="url(#linear-gradient-2)"/>
      <path id="Path_13" data-name="Path 13" d="M37.12,34.22,32.9,30,20.44,42.46a1.622,1.622,0,0,0,2.08.06l14.6-8.3" fill="url(#linear-gradient-3)"/>
      <path id="Path_14" data-name="Path 14" d="M37.12,25.78l-14.61-8.3a1.622,1.622,0,0,0-2.08.06L32.9,30Z" fill="url(#linear-gradient-4)"/>
      <g id="Group_5" data-name="Group 5">
        <path id="Path_15" data-name="Path 15" d="M37.03,34.13,22.51,42.38a1.661,1.661,0,0,1-2,.01h0l-.07.07h0l.07.07h0a1.663,1.663,0,0,0,2-.01l14.61-8.3Z" opacity="0.2"/>
        <path id="Path_16" data-name="Path 16" d="M20.44,42.32a2.012,2.012,0,0,1-.46-1.4v.15a1.978,1.978,0,0,0,.46,1.4l.07-.07Z" opacity="0.12"/>
      </g>
      <path id="Path_17" data-name="Path 17" d="M42.01,31.3l-4.99,2.83.09.09L42,31.44A1.758,1.758,0,0,0,43.05,30h0A1.819,1.819,0,0,1,42.01,31.3Z" opacity="0.12"/>
      <path id="Path_18" data-name="Path 18" d="M22.51,17.62,42.01,28.7A1.869,1.869,0,0,1,43.06,30h0a1.745,1.745,0,0,0-1.05-1.44L22.51,17.48c-1.4-.79-2.54-.13-2.54,1.47v.15C19.97,17.49,21.12,16.83,22.51,17.62Z" fill="#fff" opacity="0.25"/>
    </g>
  </g>
</svg>
